<?xml version="1.0" encoding="iso-8859-1"?>
<!-- Generator: Adobe Illustrator 25.2.3, SVG Export Plug-In . SVG Version: 6.00 Build 0)  -->
<svg version="1.1" id="Layer_1" xmlns="http://www.w3.org/2000/svg" xmlns:xlink="http://www.w3.org/1999/xlink" x="0px" y="0px"
	 viewBox="0 0 50 50" style="enable-background:new 0 0 50 50;" xml:space="preserve">
<path style="fill:#1D1D1B;" d="M18.608,19.993c-1.926,0-3.511,2.029-3.511,4.495s1.585,4.495,3.511,4.495s3.511-2.029,3.511-4.495
	S20.534,19.993,18.608,19.993z"/>
<path style="fill:#1D1D1B;" d="M31.601,19.913c-1.908,0-3.478,2.041-3.478,4.522s1.57,4.522,3.478,4.522s3.478-2.041,3.478-4.522
	S33.509,19.913,31.601,19.913z"/>
<path style="fill:none;stroke:#000000;stroke-width:2;stroke-linejoin:round;stroke-miterlimit:10;" d="M17.103,35.953
	c2.43,0.744,5.055,1.187,7.865,1.244c2.81-0.057,5.407-0.5,7.837-1.244l2.112,3.145c0.523,0.78,1.471,1.107,2.335,0.809
	c3.366-1.162,6.575-2.87,9.707-4.845c0.817-7.756-0.556-15.4-5.493-22.858l-0.004-0.006c-0.562-0.849-1.363-1.5-2.309-1.878
	c-2.162-0.866-4.274-1.568-6.293-1.964c-0.883-0.173-1.773,0.272-2.198,1.101l-0.476,0.928c-1.342-0.184-2.949-0.298-5.189-0.242
	c-2.24-0.056-3.847,0.057-5.189,0.242l-0.476-0.928c-0.426-0.83-1.314-1.274-2.198-1.101c-2.021,0.396-4.136,1.099-6.299,1.966
	c-0.945,0.379-1.744,1.031-2.306,1.88c-4.938,7.459-6.311,15.103-5.494,22.86c3.125,1.971,6.327,3.676,9.685,4.837
	c0.873,0.302,1.833-0.037,2.352-0.832L17.103,35.953z"/>
<path style="fill:none;stroke:#000000;stroke-width:2;stroke-linecap:round;stroke-miterlimit:10;" d="M35.415,34.462
	c-3.114,1.776-6.667,2.783-10.438,2.783c-3.771,0-7.324-1.007-10.438-2.783"/>
</svg>